<mxfile host="app.diagrams.net" agent="Mozilla/5.0 (Macintosh; Intel Mac OS X 10_15_7) AppleWebKit/537.36 (KHTML, like Gecko) Chrome/131.0.0.0 Safari/537.36" version="25.0.3">
  <diagram name="Page-1" id="suEUZDmJiMvf3vqnaMdR">
    <mxGraphModel dx="703" dy="470" grid="1" gridSize="10" guides="1" tooltips="1" connect="1" arrows="1" fold="1" page="1" pageScale="1" pageWidth="850" pageHeight="1100" math="0" shadow="0">
      <root>
        <mxCell id="0" />
        <mxCell id="1" parent="0" />
        <mxCell id="OdT8hfxR0gajBq4_wzXM-3" style="edgeStyle=orthogonalEdgeStyle;rounded=0;orthogonalLoop=1;jettySize=auto;html=1;entryX=0;entryY=0.5;entryDx=0;entryDy=0;" edge="1" parent="1" source="OdT8hfxR0gajBq4_wzXM-1" target="OdT8hfxR0gajBq4_wzXM-2">
          <mxGeometry relative="1" as="geometry" />
        </mxCell>
        <mxCell id="OdT8hfxR0gajBq4_wzXM-1" value="&lt;font style=&quot;font-size: 22px;&quot;&gt;Transmitter&lt;/font&gt;" style="rounded=0;whiteSpace=wrap;html=1;strokeWidth=2;" vertex="1" parent="1">
          <mxGeometry x="360" y="310" width="120" height="60" as="geometry" />
        </mxCell>
        <mxCell id="OdT8hfxR0gajBq4_wzXM-5" style="edgeStyle=orthogonalEdgeStyle;rounded=0;orthogonalLoop=1;jettySize=auto;html=1;exitX=1;exitY=0.5;exitDx=0;exitDy=0;entryX=0;entryY=0.5;entryDx=0;entryDy=0;" edge="1" parent="1" source="OdT8hfxR0gajBq4_wzXM-2" target="OdT8hfxR0gajBq4_wzXM-4">
          <mxGeometry relative="1" as="geometry" />
        </mxCell>
        <mxCell id="OdT8hfxR0gajBq4_wzXM-2" value="&lt;font style=&quot;font-size: 22px;&quot;&gt;Channel&lt;/font&gt;" style="rounded=0;whiteSpace=wrap;html=1;strokeWidth=2;" vertex="1" parent="1">
          <mxGeometry x="560" y="310" width="120" height="60" as="geometry" />
        </mxCell>
        <mxCell id="OdT8hfxR0gajBq4_wzXM-4" value="&lt;font style=&quot;font-size: 22px;&quot;&gt;Receiver&lt;/font&gt;" style="rounded=0;whiteSpace=wrap;html=1;strokeWidth=2;" vertex="1" parent="1">
          <mxGeometry x="750" y="310" width="120" height="60" as="geometry" />
        </mxCell>
        <mxCell id="OdT8hfxR0gajBq4_wzXM-6" value="m \(M\)" style="text;html=1;align=center;verticalAlign=middle;whiteSpace=wrap;rounded=0;" vertex="1" parent="1">
          <mxGeometry x="190" y="325" width="120" height="30" as="geometry" />
        </mxCell>
      </root>
    </mxGraphModel>
  </diagram>
</mxfile>
